<mxfile host="Electron" modified="2023-08-01T09:53:12.246Z" agent="Mozilla/5.0 (Macintosh; Intel Mac OS X 10_15_7) AppleWebKit/537.36 (KHTML, like Gecko) draw.io/21.1.2 Chrome/106.0.5249.199 Electron/21.4.3 Safari/537.36" etag="NpOylUo8K03plR36vlML" version="21.1.2" type="device" pages="3">
  <diagram name="Page-1" id="WNE_RSOC_HVCEA9lwao7">
    <mxGraphModel dx="1890" dy="1259" grid="1" gridSize="10" guides="1" tooltips="1" connect="1" arrows="1" fold="1" page="0" pageScale="1" pageWidth="1169" pageHeight="827" math="0" shadow="0">
      <root>
        <mxCell id="0" />
        <mxCell id="1" parent="0" />
        <mxCell id="a18rTydCDN1dITa6CPou-36" value="Velocitas project specific cache" style="rounded=0;whiteSpace=wrap;html=1;fontSize=16;dashed=1;dashPattern=12 12;fillColor=#e1d5e7;strokeColor=#9673a6;verticalAlign=bottom;shadow=0;align=left;" vertex="1" parent="1">
          <mxGeometry x="1250" y="400" width="920" height="110" as="geometry" />
        </mxCell>
        <mxCell id="a18rTydCDN1dITa6CPou-25" value="Velocitas package repository" style="rounded=0;whiteSpace=wrap;html=1;fontSize=16;dashed=1;dashPattern=12 12;fillColor=#e1d5e7;strokeColor=#9673a6;verticalAlign=bottom;shadow=0;align=left;" vertex="1" parent="1">
          <mxGeometry x="1250" y="530" width="920" height="110" as="geometry" />
        </mxCell>
        <mxCell id="a18rTydCDN1dITa6CPou-20" value="" style="ellipse;shape=cloud;whiteSpace=wrap;html=1;fontSize=16;fillColor=#fff2cc;strokeColor=#d6b656;" vertex="1" parent="1">
          <mxGeometry x="1150" y="30" width="345" height="270" as="geometry" />
        </mxCell>
        <mxCell id="a18rTydCDN1dITa6CPou-8" value="Velocitas Github" style="rounded=0;whiteSpace=wrap;html=1;fontSize=16;dashed=1;dashPattern=12 12;fillColor=#e1d5e7;strokeColor=#9673a6;verticalAlign=bottom;shadow=0;" vertex="1" parent="1">
          <mxGeometry x="2260" y="40" width="240" height="350" as="geometry" />
        </mxCell>
        <mxCell id="a18rTydCDN1dITa6CPou-7" value="Velocitas project&lt;br&gt;workspace" style="rounded=0;whiteSpace=wrap;html=1;fontSize=16;dashed=1;dashPattern=12 12;fillColor=#e1d5e7;strokeColor=#9673a6;verticalAlign=bottom;shadow=0;align=right;" vertex="1" parent="1">
          <mxGeometry x="1520" y="40" width="320" height="280" as="geometry" />
        </mxCell>
        <mxCell id="Vslb4EtYpa9SIVrh0Tky-25" value="Velocitas workspace" style="rounded=0;whiteSpace=wrap;html=1;fontSize=16;dashed=1;dashPattern=12 12;fillColor=#e1d5e7;strokeColor=#9673a6;verticalAlign=bottom;shadow=0;" parent="1" vertex="1">
          <mxGeometry x="-180" y="258.5" width="463" height="283" as="geometry" />
        </mxCell>
        <mxCell id="Vslb4EtYpa9SIVrh0Tky-10" style="edgeStyle=none;curved=1;rounded=0;orthogonalLoop=1;jettySize=auto;html=1;entryX=0.5;entryY=1;entryDx=0;entryDy=0;fontSize=12;startSize=8;endSize=8;" parent="1" source="Vslb4EtYpa9SIVrh0Tky-1" target="Vslb4EtYpa9SIVrh0Tky-16" edge="1">
          <mxGeometry relative="1" as="geometry" />
        </mxCell>
        <mxCell id="Vslb4EtYpa9SIVrh0Tky-11" value="uses" style="edgeLabel;html=1;align=center;verticalAlign=middle;resizable=0;points=[];fontSize=16;" parent="Vslb4EtYpa9SIVrh0Tky-10" vertex="1" connectable="0">
          <mxGeometry x="-0.2667" relative="1" as="geometry">
            <mxPoint as="offset" />
          </mxGeometry>
        </mxCell>
        <mxCell id="Vslb4EtYpa9SIVrh0Tky-32" value="depends on" style="edgeStyle=none;curved=1;rounded=0;orthogonalLoop=1;jettySize=auto;html=1;entryX=0;entryY=0.5;entryDx=0;entryDy=0;fontSize=12;startSize=8;endSize=8;" parent="1" source="Vslb4EtYpa9SIVrh0Tky-1" target="Vslb4EtYpa9SIVrh0Tky-31" edge="1">
          <mxGeometry relative="1" as="geometry" />
        </mxCell>
        <mxCell id="dPI-obEnypmD2hLNzWjc-2" value="described by" style="edgeStyle=none;curved=1;rounded=0;orthogonalLoop=1;jettySize=auto;html=1;entryX=1;entryY=0.75;entryDx=0;entryDy=0;fontSize=12;startSize=8;endSize=8;" parent="1" source="Vslb4EtYpa9SIVrh0Tky-1" target="Vslb4EtYpa9SIVrh0Tky-26" edge="1">
          <mxGeometry relative="1" as="geometry" />
        </mxCell>
        <mxCell id="Vslb4EtYpa9SIVrh0Tky-1" value="vapp/vservice" style="rounded=0;whiteSpace=wrap;html=1;fontSize=16;shadow=1;" parent="1" vertex="1">
          <mxGeometry x="138" y="370" width="120" height="60" as="geometry" />
        </mxCell>
        <mxCell id="Vslb4EtYpa9SIVrh0Tky-5" value="provides" style="edgeStyle=none;curved=1;rounded=0;orthogonalLoop=1;jettySize=auto;html=1;fontSize=12;startSize=8;endSize=8;entryX=0.5;entryY=0;entryDx=0;entryDy=0;" parent="1" source="Vslb4EtYpa9SIVrh0Tky-2" target="Vslb4EtYpa9SIVrh0Tky-4" edge="1">
          <mxGeometry relative="1" as="geometry" />
        </mxCell>
        <mxCell id="Vslb4EtYpa9SIVrh0Tky-8" style="edgeStyle=none;curved=1;rounded=0;orthogonalLoop=1;jettySize=auto;html=1;fontSize=12;startSize=8;endSize=8;entryX=0.5;entryY=0;entryDx=0;entryDy=0;" parent="1" source="Vslb4EtYpa9SIVrh0Tky-2" target="Vslb4EtYpa9SIVrh0Tky-7" edge="1">
          <mxGeometry relative="1" as="geometry">
            <mxPoint x="343" y="-8" as="targetPoint" />
          </mxGeometry>
        </mxCell>
        <mxCell id="Vslb4EtYpa9SIVrh0Tky-9" value="uses" style="edgeLabel;html=1;align=center;verticalAlign=middle;resizable=0;points=[];fontSize=16;" parent="Vslb4EtYpa9SIVrh0Tky-8" vertex="1" connectable="0">
          <mxGeometry x="0.3094" relative="1" as="geometry">
            <mxPoint y="-11" as="offset" />
          </mxGeometry>
        </mxCell>
        <mxCell id="Vslb4EtYpa9SIVrh0Tky-2" value="Service" style="rounded=0;whiteSpace=wrap;html=1;fontSize=16;shadow=1;" parent="1" vertex="1">
          <mxGeometry x="283" y="-157" width="120" height="60" as="geometry" />
        </mxCell>
        <mxCell id="Vslb4EtYpa9SIVrh0Tky-4" value="Service IF definition" style="rounded=0;whiteSpace=wrap;html=1;fontSize=16;shadow=1;" parent="1" vertex="1">
          <mxGeometry x="20" y="20" width="120" height="60" as="geometry" />
        </mxCell>
        <mxCell id="Vslb4EtYpa9SIVrh0Tky-23" style="edgeStyle=none;curved=1;rounded=0;orthogonalLoop=1;jettySize=auto;html=1;entryX=1;entryY=0.5;entryDx=0;entryDy=0;fontSize=12;startSize=8;endSize=8;" parent="1" source="Vslb4EtYpa9SIVrh0Tky-7" target="Vslb4EtYpa9SIVrh0Tky-15" edge="1">
          <mxGeometry relative="1" as="geometry" />
        </mxCell>
        <mxCell id="Vslb4EtYpa9SIVrh0Tky-24" value="offers" style="edgeLabel;html=1;align=center;verticalAlign=middle;resizable=0;points=[];fontSize=16;" parent="Vslb4EtYpa9SIVrh0Tky-23" vertex="1" connectable="0">
          <mxGeometry x="0.2637" y="2" relative="1" as="geometry">
            <mxPoint x="16" as="offset" />
          </mxGeometry>
        </mxCell>
        <mxCell id="Vslb4EtYpa9SIVrh0Tky-7" value="RPC &lt;br&gt;technology" style="rounded=0;whiteSpace=wrap;html=1;fontSize=16;shadow=1;" parent="1" vertex="1">
          <mxGeometry x="283" y="144" width="120" height="60" as="geometry" />
        </mxCell>
        <mxCell id="Vslb4EtYpa9SIVrh0Tky-17" style="edgeStyle=none;curved=1;rounded=0;orthogonalLoop=1;jettySize=auto;html=1;entryX=0.75;entryY=1;entryDx=0;entryDy=0;fontSize=12;startSize=8;endSize=8;exitX=0.25;exitY=0;exitDx=0;exitDy=0;" parent="1" source="Vslb4EtYpa9SIVrh0Tky-15" target="Vslb4EtYpa9SIVrh0Tky-4" edge="1">
          <mxGeometry relative="1" as="geometry" />
        </mxCell>
        <mxCell id="Vslb4EtYpa9SIVrh0Tky-20" value="consumes" style="edgeLabel;html=1;align=center;verticalAlign=middle;resizable=0;points=[];fontSize=16;" parent="Vslb4EtYpa9SIVrh0Tky-17" vertex="1" connectable="0">
          <mxGeometry x="-0.0143" relative="1" as="geometry">
            <mxPoint as="offset" />
          </mxGeometry>
        </mxCell>
        <mxCell id="Vslb4EtYpa9SIVrh0Tky-19" style="edgeStyle=none;curved=1;rounded=0;orthogonalLoop=1;jettySize=auto;html=1;entryX=0.25;entryY=0;entryDx=0;entryDy=0;fontSize=12;startSize=8;endSize=8;exitX=0.75;exitY=1;exitDx=0;exitDy=0;" parent="1" source="Vslb4EtYpa9SIVrh0Tky-15" target="Vslb4EtYpa9SIVrh0Tky-16" edge="1">
          <mxGeometry relative="1" as="geometry" />
        </mxCell>
        <mxCell id="Vslb4EtYpa9SIVrh0Tky-21" value="generates" style="edgeLabel;html=1;align=center;verticalAlign=middle;resizable=0;points=[];fontSize=16;" parent="Vslb4EtYpa9SIVrh0Tky-19" vertex="1" connectable="0">
          <mxGeometry x="-0.029" y="-3" relative="1" as="geometry">
            <mxPoint as="offset" />
          </mxGeometry>
        </mxCell>
        <mxCell id="Vslb4EtYpa9SIVrh0Tky-15" value="code generator" style="rounded=0;whiteSpace=wrap;html=1;fontSize=16;shadow=1;" parent="1" vertex="1">
          <mxGeometry x="81" y="144" width="120" height="60" as="geometry" />
        </mxCell>
        <mxCell id="Vslb4EtYpa9SIVrh0Tky-22" value="depends on" style="edgeStyle=none;curved=1;rounded=0;orthogonalLoop=1;jettySize=auto;html=1;entryX=0.5;entryY=1;entryDx=0;entryDy=0;fontSize=12;startSize=8;endSize=8;exitX=0.75;exitY=0;exitDx=0;exitDy=0;" parent="1" source="Vslb4EtYpa9SIVrh0Tky-16" target="Vslb4EtYpa9SIVrh0Tky-7" edge="1">
          <mxGeometry relative="1" as="geometry" />
        </mxCell>
        <mxCell id="Vslb4EtYpa9SIVrh0Tky-16" value="service client SDK" style="rounded=0;whiteSpace=wrap;html=1;fontSize=16;shadow=1;" parent="1" vertex="1">
          <mxGeometry x="138" y="268" width="120" height="60" as="geometry" />
        </mxCell>
        <mxCell id="Vslb4EtYpa9SIVrh0Tky-27" style="edgeStyle=none;curved=1;rounded=0;orthogonalLoop=1;jettySize=auto;html=1;entryX=0;entryY=0.5;entryDx=0;entryDy=0;fontSize=12;startSize=8;endSize=8;dashed=1;" parent="1" source="Vslb4EtYpa9SIVrh0Tky-26" target="Vslb4EtYpa9SIVrh0Tky-16" edge="1">
          <mxGeometry relative="1" as="geometry" />
        </mxCell>
        <mxCell id="Vslb4EtYpa9SIVrh0Tky-28" style="edgeStyle=none;curved=1;rounded=0;orthogonalLoop=1;jettySize=auto;html=1;entryX=0.25;entryY=1;entryDx=0;entryDy=0;fontSize=12;startSize=8;endSize=8;dashed=1;" parent="1" source="Vslb4EtYpa9SIVrh0Tky-26" target="Vslb4EtYpa9SIVrh0Tky-4" edge="1">
          <mxGeometry relative="1" as="geometry" />
        </mxCell>
        <mxCell id="Vslb4EtYpa9SIVrh0Tky-26" value="manifest" style="rounded=0;whiteSpace=wrap;html=1;fontSize=16;shadow=1;" parent="1" vertex="1">
          <mxGeometry x="-90" y="343" width="120" height="60" as="geometry" />
        </mxCell>
        <mxCell id="Vslb4EtYpa9SIVrh0Tky-29" style="edgeStyle=none;curved=1;rounded=0;orthogonalLoop=1;jettySize=auto;html=1;exitX=0.5;exitY=1;exitDx=0;exitDy=0;fontSize=12;startSize=8;endSize=8;" parent="1" source="Vslb4EtYpa9SIVrh0Tky-7" target="Vslb4EtYpa9SIVrh0Tky-7" edge="1">
          <mxGeometry relative="1" as="geometry" />
        </mxCell>
        <mxCell id="Vslb4EtYpa9SIVrh0Tky-36" style="edgeStyle=none;curved=1;rounded=0;orthogonalLoop=1;jettySize=auto;html=1;entryX=0.5;entryY=0;entryDx=0;entryDy=0;fontSize=12;startSize=8;endSize=8;" parent="1" source="Vslb4EtYpa9SIVrh0Tky-34" target="Vslb4EtYpa9SIVrh0Tky-35" edge="1">
          <mxGeometry relative="1" as="geometry" />
        </mxCell>
        <mxCell id="Vslb4EtYpa9SIVrh0Tky-37" value="generates" style="edgeLabel;html=1;align=center;verticalAlign=middle;resizable=0;points=[];fontSize=16;" parent="Vslb4EtYpa9SIVrh0Tky-36" vertex="1" connectable="0">
          <mxGeometry x="-0.0476" y="-1" relative="1" as="geometry">
            <mxPoint as="offset" />
          </mxGeometry>
        </mxCell>
        <mxCell id="Vslb4EtYpa9SIVrh0Tky-34" value="kind=VSS-vehicleModel" style="rounded=0;whiteSpace=wrap;html=1;fontSize=16;" parent="1" vertex="1">
          <mxGeometry x="730" y="300" width="120" height="60" as="geometry" />
        </mxCell>
        <mxCell id="Vslb4EtYpa9SIVrh0Tky-39" style="edgeStyle=none;curved=1;rounded=0;orthogonalLoop=1;jettySize=auto;html=1;fontSize=12;startSize=8;endSize=8;" parent="1" source="Vslb4EtYpa9SIVrh0Tky-35" target="Vslb4EtYpa9SIVrh0Tky-38" edge="1">
          <mxGeometry relative="1" as="geometry" />
        </mxCell>
        <mxCell id="Vslb4EtYpa9SIVrh0Tky-40" value="gRPC" style="edgeLabel;html=1;align=center;verticalAlign=middle;resizable=0;points=[];fontSize=16;" parent="Vslb4EtYpa9SIVrh0Tky-39" vertex="1" connectable="0">
          <mxGeometry x="-0.3966" y="-1" relative="1" as="geometry">
            <mxPoint x="-5" y="10" as="offset" />
          </mxGeometry>
        </mxCell>
        <mxCell id="Vslb4EtYpa9SIVrh0Tky-35" value="Vehicle Model SDK" style="rounded=0;whiteSpace=wrap;html=1;fontSize=16;" parent="1" vertex="1">
          <mxGeometry x="730" y="444" width="120" height="60" as="geometry" />
        </mxCell>
        <mxCell id="Vslb4EtYpa9SIVrh0Tky-38" value="KUKSA Databroker" style="rounded=0;whiteSpace=wrap;html=1;fontSize=16;" parent="1" vertex="1">
          <mxGeometry x="730" y="620" width="120" height="60" as="geometry" />
        </mxCell>
        <mxCell id="dPI-obEnypmD2hLNzWjc-1" value="" style="group" parent="1" vertex="1" connectable="0">
          <mxGeometry x="360" y="258.5" width="189" height="281.5" as="geometry" />
        </mxCell>
        <mxCell id="Vslb4EtYpa9SIVrh0Tky-31" value="Velocitas Core&lt;br&gt;SDK" style="rounded=0;whiteSpace=wrap;html=1;fontSize=16;fillColor=#e1d5e7;strokeColor=#9673a6;shadow=1;verticalAlign=top;" parent="dPI-obEnypmD2hLNzWjc-1" vertex="1">
          <mxGeometry width="189" height="281.5" as="geometry" />
        </mxCell>
        <mxCell id="Vslb4EtYpa9SIVrh0Tky-33" value="Middleware" style="rounded=0;whiteSpace=wrap;html=1;fontSize=16;shadow=1;verticalAlign=top;" parent="dPI-obEnypmD2hLNzWjc-1" vertex="1">
          <mxGeometry x="12" y="66.77919708029195" width="159" height="199.31021897810217" as="geometry" />
        </mxCell>
        <mxCell id="Vslb4EtYpa9SIVrh0Tky-42" value="PubSub" style="rounded=0;whiteSpace=wrap;html=1;fontSize=16;shadow=1;" parent="dPI-obEnypmD2hLNzWjc-1" vertex="1">
          <mxGeometry x="30" y="102.73722627737224" width="120" height="61.642335766423344" as="geometry" />
        </mxCell>
        <mxCell id="Vslb4EtYpa9SIVrh0Tky-43" value="Service Discovery" style="rounded=0;whiteSpace=wrap;html=1;fontSize=16;shadow=1;" parent="dPI-obEnypmD2hLNzWjc-1" vertex="1">
          <mxGeometry x="30" y="173.62591240875912" width="120" height="61.642335766423344" as="geometry" />
        </mxCell>
        <mxCell id="a18rTydCDN1dITa6CPou-3" style="edgeStyle=none;curved=1;rounded=0;orthogonalLoop=1;jettySize=auto;html=1;entryX=0.5;entryY=0;entryDx=0;entryDy=0;fontSize=12;startSize=8;endSize=8;" edge="1" parent="1" source="a18rTydCDN1dITa6CPou-1" target="a18rTydCDN1dITa6CPou-2">
          <mxGeometry relative="1" as="geometry" />
        </mxCell>
        <mxCell id="a18rTydCDN1dITa6CPou-4" value="described by" style="edgeLabel;html=1;align=center;verticalAlign=middle;resizable=0;points=[];fontSize=16;" vertex="1" connectable="0" parent="a18rTydCDN1dITa6CPou-3">
          <mxGeometry x="-0.1186" y="-2" relative="1" as="geometry">
            <mxPoint as="offset" />
          </mxGeometry>
        </mxCell>
        <mxCell id="a18rTydCDN1dITa6CPou-10" style="edgeStyle=none;curved=1;rounded=0;orthogonalLoop=1;jettySize=auto;html=1;entryX=0;entryY=0.5;entryDx=0;entryDy=0;fontSize=12;startSize=8;endSize=8;" edge="1" parent="1" source="a18rTydCDN1dITa6CPou-1" target="a18rTydCDN1dITa6CPou-9">
          <mxGeometry relative="1" as="geometry" />
        </mxCell>
        <mxCell id="a18rTydCDN1dITa6CPou-11" value="depends on" style="edgeLabel;html=1;align=center;verticalAlign=middle;resizable=0;points=[];fontSize=16;" vertex="1" connectable="0" parent="a18rTydCDN1dITa6CPou-10">
          <mxGeometry x="-0.15" y="-1" relative="1" as="geometry">
            <mxPoint as="offset" />
          </mxGeometry>
        </mxCell>
        <mxCell id="GaEsYFtI2L3Vhbh0NQk1-14" style="edgeStyle=orthogonalEdgeStyle;rounded=0;orthogonalLoop=1;jettySize=auto;html=1;entryX=0.5;entryY=0;entryDx=0;entryDy=0;fontSize=12;startSize=8;endSize=8;" edge="1" parent="1" source="a18rTydCDN1dITa6CPou-1" target="a18rTydCDN1dITa6CPou-43">
          <mxGeometry relative="1" as="geometry">
            <Array as="points">
              <mxPoint x="1680" y="390" />
              <mxPoint x="1380" y="390" />
            </Array>
          </mxGeometry>
        </mxCell>
        <mxCell id="GaEsYFtI2L3Vhbh0NQk1-15" value="depends on" style="edgeLabel;html=1;align=center;verticalAlign=middle;resizable=0;points=[];fontSize=16;" vertex="1" connectable="0" parent="GaEsYFtI2L3Vhbh0NQk1-14">
          <mxGeometry x="-0.2845" y="1" relative="1" as="geometry">
            <mxPoint as="offset" />
          </mxGeometry>
        </mxCell>
        <mxCell id="GaEsYFtI2L3Vhbh0NQk1-16" style="edgeStyle=orthogonalEdgeStyle;rounded=0;orthogonalLoop=1;jettySize=auto;html=1;fontSize=12;startSize=8;endSize=8;" edge="1" parent="1" source="a18rTydCDN1dITa6CPou-1" target="a18rTydCDN1dITa6CPou-26">
          <mxGeometry relative="1" as="geometry">
            <Array as="points">
              <mxPoint x="1680" y="390" />
              <mxPoint x="1600" y="390" />
            </Array>
          </mxGeometry>
        </mxCell>
        <mxCell id="GaEsYFtI2L3Vhbh0NQk1-17" style="edgeStyle=orthogonalEdgeStyle;rounded=0;orthogonalLoop=1;jettySize=auto;html=1;entryX=0.5;entryY=0;entryDx=0;entryDy=0;fontSize=12;startSize=8;endSize=8;" edge="1" parent="1" source="a18rTydCDN1dITa6CPou-1" target="a18rTydCDN1dITa6CPou-52">
          <mxGeometry relative="1" as="geometry">
            <Array as="points">
              <mxPoint x="1680" y="390" />
              <mxPoint x="1820" y="390" />
            </Array>
          </mxGeometry>
        </mxCell>
        <mxCell id="GaEsYFtI2L3Vhbh0NQk1-18" style="edgeStyle=orthogonalEdgeStyle;rounded=0;orthogonalLoop=1;jettySize=auto;html=1;entryX=0.5;entryY=0;entryDx=0;entryDy=0;fontSize=12;startSize=8;endSize=8;" edge="1" parent="1" source="a18rTydCDN1dITa6CPou-1" target="GaEsYFtI2L3Vhbh0NQk1-9">
          <mxGeometry relative="1" as="geometry">
            <Array as="points">
              <mxPoint x="1680" y="390" />
              <mxPoint x="2040" y="390" />
            </Array>
          </mxGeometry>
        </mxCell>
        <mxCell id="a18rTydCDN1dITa6CPou-1" value="Vehicle Application" style="rounded=0;whiteSpace=wrap;html=1;fontSize=16;shadow=1;" vertex="1" parent="1">
          <mxGeometry x="1620" y="60" width="120" height="60" as="geometry" />
        </mxCell>
        <mxCell id="a18rTydCDN1dITa6CPou-21" style="edgeStyle=none;curved=1;rounded=0;orthogonalLoop=1;jettySize=auto;html=1;entryX=1;entryY=0.5;entryDx=0;entryDy=0;fontSize=12;startSize=8;endSize=8;dashed=1;" edge="1" parent="1" source="a18rTydCDN1dITa6CPou-2" target="a18rTydCDN1dITa6CPou-23">
          <mxGeometry relative="1" as="geometry" />
        </mxCell>
        <mxCell id="a18rTydCDN1dITa6CPou-24" value="references" style="edgeLabel;html=1;align=center;verticalAlign=middle;resizable=0;points=[];fontSize=16;" vertex="1" connectable="0" parent="a18rTydCDN1dITa6CPou-21">
          <mxGeometry x="-0.1581" y="-2" relative="1" as="geometry">
            <mxPoint as="offset" />
          </mxGeometry>
        </mxCell>
        <mxCell id="a18rTydCDN1dITa6CPou-49" value="" style="edgeStyle=none;curved=1;rounded=0;orthogonalLoop=1;jettySize=auto;html=1;entryX=1;entryY=0.5;entryDx=0;entryDy=0;entryPerimeter=0;fontSize=12;startSize=8;endSize=8;" edge="1" parent="1" source="a18rTydCDN1dITa6CPou-2" target="a18rTydCDN1dITa6CPou-48">
          <mxGeometry relative="1" as="geometry" />
        </mxCell>
        <mxCell id="a18rTydCDN1dITa6CPou-50" value="references" style="edgeLabel;html=1;align=center;verticalAlign=middle;resizable=0;points=[];fontSize=16;" vertex="1" connectable="0" parent="a18rTydCDN1dITa6CPou-49">
          <mxGeometry x="-0.0786" y="-1" relative="1" as="geometry">
            <mxPoint as="offset" />
          </mxGeometry>
        </mxCell>
        <mxCell id="a18rTydCDN1dITa6CPou-2" value="Application&lt;br&gt;Manifest" style="rounded=0;whiteSpace=wrap;html=1;fontSize=16;shadow=1;" vertex="1" parent="1">
          <mxGeometry x="1540" y="198.5" width="120" height="60" as="geometry" />
        </mxCell>
        <mxCell id="a18rTydCDN1dITa6CPou-15" style="edgeStyle=orthogonalEdgeStyle;rounded=0;orthogonalLoop=1;jettySize=auto;html=1;fontSize=12;startSize=8;endSize=8;dashed=1;exitX=0.5;exitY=1;exitDx=0;exitDy=0;" edge="1" parent="1" source="a18rTydCDN1dITa6CPou-6">
          <mxGeometry relative="1" as="geometry">
            <mxPoint x="1600" y="260" as="targetPoint" />
            <Array as="points">
              <mxPoint x="1600" y="700" />
              <mxPoint x="1220" y="700" />
              <mxPoint x="1220" y="350" />
              <mxPoint x="1600" y="350" />
            </Array>
          </mxGeometry>
        </mxCell>
        <mxCell id="a18rTydCDN1dITa6CPou-29" value="scans for gRPC&lt;br&gt;dependencies" style="edgeLabel;html=1;align=center;verticalAlign=middle;resizable=0;points=[];fontSize=16;labelBackgroundColor=#E6E6E6;" vertex="1" connectable="0" parent="a18rTydCDN1dITa6CPou-15">
          <mxGeometry x="-0.2225" y="-1" relative="1" as="geometry">
            <mxPoint x="379" y="1" as="offset" />
          </mxGeometry>
        </mxCell>
        <mxCell id="a18rTydCDN1dITa6CPou-6" value="&lt;font style=&quot;font-size: 12px;&quot;&gt;&lt;i&gt;&amp;lt;&amp;lt;velocitas pkg&amp;gt;&amp;gt;&lt;/i&gt;&lt;/font&gt;&lt;br&gt;grpc-service-support@v1" style="rounded=0;whiteSpace=wrap;html=1;fontSize=16;shadow=1;" vertex="1" parent="1">
          <mxGeometry x="1500" y="550" width="200" height="60" as="geometry" />
        </mxCell>
        <mxCell id="a18rTydCDN1dITa6CPou-9" value="&lt;i&gt;&lt;font style=&quot;font-size: 12px;&quot;&gt;&amp;lt;&amp;lt;git repo&amp;gt;&amp;gt;&lt;/font&gt;&lt;/i&gt;&lt;br&gt;velocitas-core-sdk" style="rounded=0;whiteSpace=wrap;html=1;fontSize=16;shadow=1;" vertex="1" parent="1">
          <mxGeometry x="2280" y="60" width="200" height="60" as="geometry" />
        </mxCell>
        <mxCell id="a18rTydCDN1dITa6CPou-14" style="edgeStyle=orthogonalEdgeStyle;rounded=0;orthogonalLoop=1;jettySize=auto;html=1;fontSize=12;startSize=8;endSize=8;dashed=1;" edge="1" parent="1">
          <mxGeometry relative="1" as="geometry">
            <mxPoint x="1380" y="610" as="sourcePoint" />
            <mxPoint x="1600" y="260" as="targetPoint" />
            <Array as="points">
              <mxPoint x="1380" y="700" />
              <mxPoint x="1220" y="700" />
              <mxPoint x="1220" y="350" />
              <mxPoint x="1600" y="350" />
            </Array>
          </mxGeometry>
        </mxCell>
        <mxCell id="a18rTydCDN1dITa6CPou-31" value="scans for vehicle model&lt;br&gt;dependencies" style="edgeLabel;html=1;align=center;verticalAlign=middle;resizable=0;points=[];fontSize=16;labelBackgroundColor=#E6E6E6;" vertex="1" connectable="0" parent="a18rTydCDN1dITa6CPou-14">
          <mxGeometry x="-0.2387" relative="1" as="geometry">
            <mxPoint x="160" y="127" as="offset" />
          </mxGeometry>
        </mxCell>
        <mxCell id="a18rTydCDN1dITa6CPou-44" style="edgeStyle=none;curved=1;rounded=0;orthogonalLoop=1;jettySize=auto;html=1;entryX=0.5;entryY=1;entryDx=0;entryDy=0;fontSize=12;startSize=8;endSize=8;dashed=1;dashPattern=1 1;" edge="1" parent="1" target="a18rTydCDN1dITa6CPou-43">
          <mxGeometry relative="1" as="geometry">
            <mxPoint x="1379.86" y="548.82" as="sourcePoint" />
            <mxPoint x="1379.86" y="621.82" as="targetPoint" />
          </mxGeometry>
        </mxCell>
        <mxCell id="a18rTydCDN1dITa6CPou-45" value="generates" style="edgeLabel;html=1;align=center;verticalAlign=middle;resizable=0;points=[];fontSize=16;labelBackgroundColor=#E6E6E6;" vertex="1" connectable="0" parent="a18rTydCDN1dITa6CPou-44">
          <mxGeometry x="0.105" relative="1" as="geometry">
            <mxPoint y="11" as="offset" />
          </mxGeometry>
        </mxCell>
        <mxCell id="a18rTydCDN1dITa6CPou-12" value="&lt;font style=&quot;font-size: 12px;&quot;&gt;&lt;i&gt;&amp;lt;&amp;lt;velocitas pkg&amp;gt;&amp;gt;&lt;/i&gt;&lt;/font&gt;&lt;br&gt;vss-vehiclemodel-support@v2" style="rounded=0;whiteSpace=wrap;html=1;fontSize=16;shadow=1;" vertex="1" parent="1">
          <mxGeometry x="1280" y="550" width="200" height="60" as="geometry" />
        </mxCell>
        <mxCell id="a18rTydCDN1dITa6CPou-16" style="edgeStyle=orthogonalEdgeStyle;rounded=0;orthogonalLoop=1;jettySize=auto;html=1;fontSize=12;startSize=8;endSize=8;dashed=1;entryX=0.5;entryY=1;entryDx=0;entryDy=0;exitX=0.5;exitY=1;exitDx=0;exitDy=0;" edge="1" parent="1" source="a18rTydCDN1dITa6CPou-13" target="a18rTydCDN1dITa6CPou-2">
          <mxGeometry relative="1" as="geometry">
            <mxPoint x="1600" y="260" as="targetPoint" />
            <Array as="points">
              <mxPoint x="1820" y="700" />
              <mxPoint x="1220" y="700" />
              <mxPoint x="1220" y="350" />
              <mxPoint x="1600" y="350" />
            </Array>
          </mxGeometry>
        </mxCell>
        <mxCell id="a18rTydCDN1dITa6CPou-30" value="scans for uP&lt;br&gt;dependencies" style="edgeLabel;html=1;align=center;verticalAlign=middle;resizable=0;points=[];fontSize=16;labelBackgroundColor=#E6E6E6;" vertex="1" connectable="0" parent="a18rTydCDN1dITa6CPou-16">
          <mxGeometry x="-0.2188" y="2" relative="1" as="geometry">
            <mxPoint x="501" y="-32" as="offset" />
          </mxGeometry>
        </mxCell>
        <mxCell id="a18rTydCDN1dITa6CPou-54" style="edgeStyle=none;curved=1;rounded=0;orthogonalLoop=1;jettySize=auto;html=1;entryX=0.5;entryY=1;entryDx=0;entryDy=0;fontSize=12;startSize=8;endSize=8;" edge="1" parent="1" source="a18rTydCDN1dITa6CPou-13" target="a18rTydCDN1dITa6CPou-52">
          <mxGeometry relative="1" as="geometry" />
        </mxCell>
        <mxCell id="a18rTydCDN1dITa6CPou-55" value="generates" style="edgeLabel;html=1;align=center;verticalAlign=middle;resizable=0;points=[];fontSize=16;labelBackgroundColor=#E6E6E6;" vertex="1" connectable="0" parent="a18rTydCDN1dITa6CPou-54">
          <mxGeometry x="-0.3085" y="-1" relative="1" as="geometry">
            <mxPoint as="offset" />
          </mxGeometry>
        </mxCell>
        <mxCell id="a18rTydCDN1dITa6CPou-13" value="&lt;i&gt;&lt;font style=&quot;font-size: 12px;&quot;&gt;&amp;lt;&amp;lt;velocitas pkg&amp;gt;&amp;gt;&lt;/font&gt;&lt;/i&gt;&lt;br&gt;uprotocol-service-support@v0.2" style="rounded=0;whiteSpace=wrap;html=1;fontSize=16;shadow=1;" vertex="1" parent="1">
          <mxGeometry x="1720" y="550" width="200" height="60" as="geometry" />
        </mxCell>
        <mxCell id="a18rTydCDN1dITa6CPou-19" value="Service IF specification" style="rounded=0;whiteSpace=wrap;html=1;fontSize=16;" vertex="1" parent="1">
          <mxGeometry x="1260" y="100" width="120" height="60" as="geometry" />
        </mxCell>
        <mxCell id="a18rTydCDN1dITa6CPou-22" value="Service IF specification" style="rounded=0;whiteSpace=wrap;html=1;fontSize=16;" vertex="1" parent="1">
          <mxGeometry x="1270" y="110" width="120" height="60" as="geometry" />
        </mxCell>
        <mxCell id="a18rTydCDN1dITa6CPou-23" value="Service IF specification" style="rounded=0;whiteSpace=wrap;html=1;fontSize=16;" vertex="1" parent="1">
          <mxGeometry x="1280" y="120" width="120" height="60" as="geometry" />
        </mxCell>
        <mxCell id="a18rTydCDN1dITa6CPou-26" value="&lt;font style=&quot;font-size: 12px;&quot;&gt;&lt;i&gt;&amp;lt;&amp;lt;pip/conan package&amp;gt;&amp;gt;&lt;br&gt;&lt;/i&gt;&lt;/font&gt;sdk-ext-&amp;lt;service&amp;gt;-client" style="rounded=0;whiteSpace=wrap;html=1;fontSize=16;shadow=1;" vertex="1" parent="1">
          <mxGeometry x="1500" y="425.00000000000006" width="200" height="60" as="geometry" />
        </mxCell>
        <mxCell id="a18rTydCDN1dITa6CPou-27" style="edgeStyle=none;curved=1;rounded=0;orthogonalLoop=1;jettySize=auto;html=1;fontSize=12;startSize=8;endSize=8;dashed=1;dashPattern=1 1;" edge="1" parent="1" source="a18rTydCDN1dITa6CPou-6" target="a18rTydCDN1dITa6CPou-26">
          <mxGeometry relative="1" as="geometry" />
        </mxCell>
        <mxCell id="a18rTydCDN1dITa6CPou-28" value="generates" style="edgeLabel;html=1;align=center;verticalAlign=middle;resizable=0;points=[];fontSize=16;labelBackgroundColor=#E6E6E6;" vertex="1" connectable="0" parent="a18rTydCDN1dITa6CPou-27">
          <mxGeometry x="-0.1224" y="-2" relative="1" as="geometry">
            <mxPoint x="2" y="6" as="offset" />
          </mxGeometry>
        </mxCell>
        <mxCell id="a18rTydCDN1dITa6CPou-37" style="edgeStyle=none;curved=1;rounded=0;orthogonalLoop=1;jettySize=auto;html=1;entryX=0;entryY=0.5;entryDx=0;entryDy=0;fontSize=12;startSize=8;endSize=8;dashed=1;" edge="1" parent="1" source="a18rTydCDN1dITa6CPou-32" target="a18rTydCDN1dITa6CPou-34">
          <mxGeometry relative="1" as="geometry" />
        </mxCell>
        <mxCell id="a18rTydCDN1dITa6CPou-40" value="references" style="edgeLabel;html=1;align=center;verticalAlign=middle;resizable=0;points=[];fontSize=16;" vertex="1" connectable="0" parent="a18rTydCDN1dITa6CPou-37">
          <mxGeometry x="-0.1786" y="1" relative="1" as="geometry">
            <mxPoint x="-9" y="5" as="offset" />
          </mxGeometry>
        </mxCell>
        <mxCell id="a18rTydCDN1dITa6CPou-38" style="edgeStyle=none;curved=1;rounded=0;orthogonalLoop=1;jettySize=auto;html=1;entryX=0;entryY=0.5;entryDx=0;entryDy=0;fontSize=12;startSize=8;endSize=8;dashed=1;" edge="1" parent="1" source="a18rTydCDN1dITa6CPou-32" target="a18rTydCDN1dITa6CPou-33">
          <mxGeometry relative="1" as="geometry" />
        </mxCell>
        <mxCell id="a18rTydCDN1dITa6CPou-41" value="references" style="edgeLabel;html=1;align=center;verticalAlign=middle;resizable=0;points=[];fontSize=16;" vertex="1" connectable="0" parent="a18rTydCDN1dITa6CPou-38">
          <mxGeometry x="-0.1642" y="1" relative="1" as="geometry">
            <mxPoint x="-12" as="offset" />
          </mxGeometry>
        </mxCell>
        <mxCell id="a18rTydCDN1dITa6CPou-39" style="edgeStyle=none;curved=1;rounded=0;orthogonalLoop=1;jettySize=auto;html=1;entryX=0;entryY=0.5;entryDx=0;entryDy=0;fontSize=12;startSize=8;endSize=8;dashed=1;" edge="1" parent="1" source="a18rTydCDN1dITa6CPou-32" target="a18rTydCDN1dITa6CPou-35">
          <mxGeometry relative="1" as="geometry" />
        </mxCell>
        <mxCell id="a18rTydCDN1dITa6CPou-42" value="references" style="edgeLabel;html=1;align=center;verticalAlign=middle;resizable=0;points=[];fontSize=16;" vertex="1" connectable="0" parent="a18rTydCDN1dITa6CPou-39">
          <mxGeometry x="-0.1795" y="1" relative="1" as="geometry">
            <mxPoint x="-9" y="-8" as="offset" />
          </mxGeometry>
        </mxCell>
        <mxCell id="a18rTydCDN1dITa6CPou-32" value="devenv configuration&lt;br&gt;(.velocitas.json)" style="rounded=0;whiteSpace=wrap;html=1;fontSize=16;shadow=1;" vertex="1" parent="1">
          <mxGeometry x="1700" y="198.5" width="120" height="60" as="geometry" />
        </mxCell>
        <mxCell id="a18rTydCDN1dITa6CPou-33" value="&lt;font style=&quot;font-size: 12px;&quot;&gt;&lt;i&gt;&amp;lt;&amp;lt;git repo&amp;gt;&amp;gt;&lt;/i&gt;&lt;/font&gt;&lt;br&gt;grpc-service-support" style="rounded=0;whiteSpace=wrap;html=1;fontSize=16;shadow=1;" vertex="1" parent="1">
          <mxGeometry x="2280" y="220" width="200" height="60" as="geometry" />
        </mxCell>
        <mxCell id="a18rTydCDN1dITa6CPou-34" value="&lt;font style=&quot;font-size: 12px;&quot;&gt;&lt;i&gt;&amp;lt;&amp;lt;git repo&amp;gt;&amp;gt;&lt;/i&gt;&lt;/font&gt;&lt;br&gt;vss-vehiclemodel-support" style="rounded=0;whiteSpace=wrap;html=1;fontSize=16;shadow=1;" vertex="1" parent="1">
          <mxGeometry x="2280" y="138.5" width="200" height="60" as="geometry" />
        </mxCell>
        <mxCell id="a18rTydCDN1dITa6CPou-46" style="edgeStyle=orthogonalEdgeStyle;rounded=0;orthogonalLoop=1;jettySize=auto;html=1;fontSize=12;startSize=8;endSize=8;entryX=1;entryY=0.5;entryDx=0;entryDy=0;exitX=0.005;exitY=0.925;exitDx=0;exitDy=0;exitPerimeter=0;" edge="1" parent="1" source="a18rTydCDN1dITa6CPou-8" target="a18rTydCDN1dITa6CPou-25">
          <mxGeometry relative="1" as="geometry">
            <mxPoint x="2080" y="390" as="sourcePoint" />
            <mxPoint x="1950" y="519" as="targetPoint" />
            <Array as="points">
              <mxPoint x="2210" y="364" />
              <mxPoint x="2210" y="585" />
            </Array>
          </mxGeometry>
        </mxCell>
        <mxCell id="a18rTydCDN1dITa6CPou-47" value="cloned by CLI" style="edgeLabel;html=1;align=center;verticalAlign=middle;resizable=0;points=[];fontSize=16;" vertex="1" connectable="0" parent="a18rTydCDN1dITa6CPou-46">
          <mxGeometry x="0.1295" y="2" relative="1" as="geometry">
            <mxPoint x="-2" y="12" as="offset" />
          </mxGeometry>
        </mxCell>
        <mxCell id="a18rTydCDN1dITa6CPou-35" value="&lt;i&gt;&lt;font style=&quot;font-size: 12px;&quot;&gt;&amp;lt;&amp;lt;git repo&amp;gt;&amp;gt;&lt;/font&gt;&lt;/i&gt;&lt;br&gt;uprotocol-service-support" style="rounded=0;whiteSpace=wrap;html=1;fontSize=16;shadow=1;" vertex="1" parent="1">
          <mxGeometry x="2280" y="300" width="200" height="60" as="geometry" />
        </mxCell>
        <mxCell id="a18rTydCDN1dITa6CPou-43" value="&lt;font style=&quot;font-size: 12px;&quot;&gt;&lt;i&gt;&amp;lt;&amp;lt;pip/conan package&amp;gt;&amp;gt;&lt;br&gt;&lt;/i&gt;&lt;/font&gt;sdk-ext-vss-vehicle-model" style="rounded=0;whiteSpace=wrap;html=1;fontSize=16;shadow=1;" vertex="1" parent="1">
          <mxGeometry x="1280" y="425.00000000000006" width="200" height="60" as="geometry" />
        </mxCell>
        <mxCell id="a18rTydCDN1dITa6CPou-48" value="API catalogue" style="shape=cylinder3;whiteSpace=wrap;html=1;boundedLbl=1;backgroundOutline=1;size=15;fontSize=16;" vertex="1" parent="1">
          <mxGeometry x="1290" y="188" width="100" height="80" as="geometry" />
        </mxCell>
        <mxCell id="a18rTydCDN1dITa6CPou-52" value="&lt;i&gt;&lt;font style=&quot;font-size: 12px;&quot;&gt;&amp;lt;&amp;lt;pip/conan package&amp;gt;&amp;gt;&lt;/font&gt;&lt;/i&gt;&lt;br&gt;sdk-ext-uprotocol-&amp;lt;service&amp;gt;-client" style="rounded=0;whiteSpace=wrap;html=1;fontSize=16;shadow=1;" vertex="1" parent="1">
          <mxGeometry x="1720" y="425.00000000000006" width="200" height="60" as="geometry" />
        </mxCell>
        <mxCell id="GaEsYFtI2L3Vhbh0NQk1-5" style="edgeStyle=orthogonalEdgeStyle;rounded=0;orthogonalLoop=1;jettySize=auto;html=1;entryX=1;entryY=0.5;entryDx=0;entryDy=0;fontSize=12;startSize=8;endSize=8;" edge="1" parent="1" source="GaEsYFtI2L3Vhbh0NQk1-1" target="a18rTydCDN1dITa6CPou-25">
          <mxGeometry relative="1" as="geometry">
            <Array as="points">
              <mxPoint x="2210" y="610" />
              <mxPoint x="2210" y="585" />
            </Array>
          </mxGeometry>
        </mxCell>
        <mxCell id="GaEsYFtI2L3Vhbh0NQk1-1" value="3rd party git server&lt;br&gt;(possibly private)" style="rounded=0;whiteSpace=wrap;html=1;fontSize=16;dashed=1;dashPattern=12 12;fillColor=#dae8fc;strokeColor=#6c8ebf;verticalAlign=bottom;shadow=0;" vertex="1" parent="1">
          <mxGeometry x="2260" y="530" width="240" height="140" as="geometry" />
        </mxCell>
        <mxCell id="GaEsYFtI2L3Vhbh0NQk1-2" value="&lt;i&gt;&lt;font style=&quot;font-size: 12px;&quot;&gt;&amp;lt;&amp;lt;git repo&amp;gt;&amp;gt;&lt;/font&gt;&lt;/i&gt;&lt;br&gt;oem-service-support" style="rounded=0;whiteSpace=wrap;html=1;fontSize=16;shadow=1;fillColor=#dae8fc;strokeColor=#6c8ebf;" vertex="1" parent="1">
          <mxGeometry x="2280" y="555" width="200" height="60" as="geometry" />
        </mxCell>
        <mxCell id="GaEsYFtI2L3Vhbh0NQk1-3" style="edgeStyle=none;curved=1;rounded=0;orthogonalLoop=1;jettySize=auto;html=1;entryX=0.5;entryY=0;entryDx=0;entryDy=0;fontSize=12;dashed=1;exitX=0.999;exitY=0.863;exitDx=0;exitDy=0;exitPerimeter=0;" edge="1" parent="1" source="a18rTydCDN1dITa6CPou-32" target="GaEsYFtI2L3Vhbh0NQk1-2">
          <mxGeometry relative="1" as="geometry">
            <Array as="points">
              <mxPoint x="2270" y="340" />
            </Array>
          </mxGeometry>
        </mxCell>
        <mxCell id="GaEsYFtI2L3Vhbh0NQk1-4" value="references" style="edgeLabel;html=1;align=center;verticalAlign=middle;resizable=0;points=[];fontSize=16;" vertex="1" connectable="0" parent="GaEsYFtI2L3Vhbh0NQk1-3">
          <mxGeometry x="0.2818" y="2" relative="1" as="geometry">
            <mxPoint x="-262" y="-38" as="offset" />
          </mxGeometry>
        </mxCell>
        <mxCell id="GaEsYFtI2L3Vhbh0NQk1-10" style="edgeStyle=none;curved=1;rounded=0;orthogonalLoop=1;jettySize=auto;html=1;entryX=0.5;entryY=1;entryDx=0;entryDy=0;fontSize=12;startSize=8;endSize=8;" edge="1" parent="1" source="GaEsYFtI2L3Vhbh0NQk1-6" target="GaEsYFtI2L3Vhbh0NQk1-9">
          <mxGeometry relative="1" as="geometry" />
        </mxCell>
        <mxCell id="GaEsYFtI2L3Vhbh0NQk1-11" value="generates" style="edgeLabel;html=1;align=center;verticalAlign=middle;resizable=0;points=[];fontSize=16;fontColor=#000000;labelBackgroundColor=#E6E6E6;" vertex="1" connectable="0" parent="GaEsYFtI2L3Vhbh0NQk1-10">
          <mxGeometry x="-0.3094" relative="1" as="geometry">
            <mxPoint as="offset" />
          </mxGeometry>
        </mxCell>
        <mxCell id="GaEsYFtI2L3Vhbh0NQk1-12" style="edgeStyle=orthogonalEdgeStyle;rounded=0;orthogonalLoop=1;jettySize=auto;html=1;entryX=0.5;entryY=1;entryDx=0;entryDy=0;fontSize=12;startSize=8;endSize=8;dashed=1;strokeColor=default;" edge="1" parent="1" source="GaEsYFtI2L3Vhbh0NQk1-6" target="a18rTydCDN1dITa6CPou-2">
          <mxGeometry relative="1" as="geometry">
            <Array as="points">
              <mxPoint x="2040" y="700" />
              <mxPoint x="1220" y="700" />
              <mxPoint x="1220" y="350" />
              <mxPoint x="1600" y="350" />
            </Array>
          </mxGeometry>
        </mxCell>
        <mxCell id="GaEsYFtI2L3Vhbh0NQk1-13" value="scans for oem&lt;br&gt;dependencies" style="edgeLabel;html=1;align=center;verticalAlign=middle;resizable=0;points=[];fontSize=16;labelBackgroundColor=#E6E6E6;" vertex="1" connectable="0" parent="GaEsYFtI2L3Vhbh0NQk1-12">
          <mxGeometry x="-0.9411" relative="1" as="geometry">
            <mxPoint y="9" as="offset" />
          </mxGeometry>
        </mxCell>
        <mxCell id="GaEsYFtI2L3Vhbh0NQk1-6" value="&lt;i&gt;&lt;font style=&quot;font-size: 12px;&quot;&gt;&amp;lt;&amp;lt;velocitas pkg&amp;gt;&amp;gt;&lt;/font&gt;&lt;/i&gt;&lt;br&gt;oem-service-support@v0.7" style="rounded=0;whiteSpace=wrap;html=1;fontSize=16;shadow=1;fillColor=#dae8fc;strokeColor=#6c8ebf;" vertex="1" parent="1">
          <mxGeometry x="1940" y="550" width="200" height="60" as="geometry" />
        </mxCell>
        <mxCell id="GaEsYFtI2L3Vhbh0NQk1-9" value="&lt;i style=&quot;border-color: var(--border-color);&quot;&gt;&lt;font style=&quot;border-color: var(--border-color); font-size: 12px;&quot;&gt;&amp;lt;&amp;lt;pip/conan package&amp;gt;&amp;gt;&lt;/font&gt;&lt;/i&gt;&lt;br&gt;sdk-ext-oem-service-client" style="rounded=0;whiteSpace=wrap;html=1;fontSize=16;shadow=1;" vertex="1" parent="1">
          <mxGeometry x="1940" y="425" width="200" height="60" as="geometry" />
        </mxCell>
      </root>
    </mxGraphModel>
  </diagram>
  <diagram id="YG7cbVguaLw6KW1mU_kS" name="Page-2">
    <mxGraphModel dx="2854" dy="1815" grid="1" gridSize="10" guides="1" tooltips="1" connect="1" arrows="1" fold="1" page="0" pageScale="1" pageWidth="1169" pageHeight="827" math="0" shadow="0">
      <root>
        <mxCell id="0" />
        <mxCell id="1" parent="0" />
        <mxCell id="TtJlE7QL4vssy0-k3NIv-48" style="edgeStyle=none;curved=1;rounded=0;orthogonalLoop=1;jettySize=auto;html=1;entryX=0.5;entryY=1;entryDx=0;entryDy=0;fontSize=12;startSize=8;endSize=8;dashed=1;" edge="1" parent="1" source="TtJlE7QL4vssy0-k3NIv-36" target="TtJlE7QL4vssy0-k3NIv-46">
          <mxGeometry relative="1" as="geometry">
            <Array as="points">
              <mxPoint x="210" y="680" />
            </Array>
          </mxGeometry>
        </mxCell>
        <mxCell id="TtJlE7QL4vssy0-k3NIv-42" value="Developer machine" style="rounded=0;whiteSpace=wrap;html=1;fontSize=16;dashed=1;dashPattern=8 8;verticalAlign=top;" vertex="1" parent="1">
          <mxGeometry x="-80" y="340" width="160" height="430" as="geometry" />
        </mxCell>
        <mxCell id="TtJlE7QL4vssy0-k3NIv-35" value="Github" style="rounded=0;whiteSpace=wrap;html=1;fontSize=16;dashed=1;dashPattern=8 8;verticalAlign=top;" vertex="1" parent="1">
          <mxGeometry x="140" y="340" width="160" height="270" as="geometry" />
        </mxCell>
        <mxCell id="TtJlE7QL4vssy0-k3NIv-11" value="Github" style="rounded=0;whiteSpace=wrap;html=1;fontSize=16;dashed=1;dashPattern=8 8;verticalAlign=top;" vertex="1" parent="1">
          <mxGeometry x="-70" y="-200" width="360" height="320" as="geometry" />
        </mxCell>
        <mxCell id="TtJlE7QL4vssy0-k3NIv-9" style="edgeStyle=none;curved=1;rounded=0;orthogonalLoop=1;jettySize=auto;html=1;entryX=0;entryY=0.5;entryDx=0;entryDy=0;fontSize=12;startSize=8;endSize=8;" edge="1" parent="1" source="TtJlE7QL4vssy0-k3NIv-2" target="TtJlE7QL4vssy0-k3NIv-6">
          <mxGeometry relative="1" as="geometry" />
        </mxCell>
        <mxCell id="TtJlE7QL4vssy0-k3NIv-10" value="Use this template" style="edgeLabel;html=1;align=center;verticalAlign=middle;resizable=0;points=[];fontSize=16;labelBackgroundColor=#E6E6E6;" vertex="1" connectable="0" parent="TtJlE7QL4vssy0-k3NIv-9">
          <mxGeometry x="-0.1093" y="1" relative="1" as="geometry">
            <mxPoint as="offset" />
          </mxGeometry>
        </mxCell>
        <mxCell id="TtJlE7QL4vssy0-k3NIv-2" value="Developer" style="shape=umlActor;verticalLabelPosition=bottom;verticalAlign=top;html=1;outlineConnect=0;fontSize=16;" vertex="1" parent="1">
          <mxGeometry x="-320" y="-170" width="30" height="60" as="geometry" />
        </mxCell>
        <mxCell id="TtJlE7QL4vssy0-k3NIv-8" style="edgeStyle=none;curved=1;rounded=0;orthogonalLoop=1;jettySize=auto;html=1;fontSize=12;startSize=8;endSize=8;" edge="1" parent="1" source="TtJlE7QL4vssy0-k3NIv-6" target="TtJlE7QL4vssy0-k3NIv-7">
          <mxGeometry relative="1" as="geometry" />
        </mxCell>
        <mxCell id="TtJlE7QL4vssy0-k3NIv-12" value="creates" style="edgeLabel;html=1;align=center;verticalAlign=middle;resizable=0;points=[];fontSize=16;" vertex="1" connectable="0" parent="TtJlE7QL4vssy0-k3NIv-8">
          <mxGeometry x="-0.0467" y="-2" relative="1" as="geometry">
            <mxPoint y="1" as="offset" />
          </mxGeometry>
        </mxCell>
        <mxCell id="TtJlE7QL4vssy0-k3NIv-6" value="Velocitas Project Template" style="rounded=0;whiteSpace=wrap;html=1;fontSize=16;" vertex="1" parent="1">
          <mxGeometry x="-40" y="-170" width="120" height="60" as="geometry" />
        </mxCell>
        <mxCell id="TtJlE7QL4vssy0-k3NIv-16" style="edgeStyle=none;curved=1;rounded=0;orthogonalLoop=1;jettySize=auto;html=1;entryX=0.5;entryY=1;entryDx=0;entryDy=0;fontSize=12;startSize=8;endSize=8;" edge="1" parent="1" source="TtJlE7QL4vssy0-k3NIv-7" target="TtJlE7QL4vssy0-k3NIv-15">
          <mxGeometry relative="1" as="geometry">
            <Array as="points">
              <mxPoint x="160" />
            </Array>
          </mxGeometry>
        </mxCell>
        <mxCell id="TtJlE7QL4vssy0-k3NIv-17" value="references fixed set of" style="edgeLabel;html=1;align=center;verticalAlign=middle;resizable=0;points=[];fontSize=16;" vertex="1" connectable="0" parent="TtJlE7QL4vssy0-k3NIv-16">
          <mxGeometry x="0.0756" y="10" relative="1" as="geometry">
            <mxPoint as="offset" />
          </mxGeometry>
        </mxCell>
        <mxCell id="TtJlE7QL4vssy0-k3NIv-19" style="edgeStyle=none;curved=1;rounded=0;orthogonalLoop=1;jettySize=auto;html=1;fontSize=12;startSize=8;endSize=8;" edge="1" parent="1" source="TtJlE7QL4vssy0-k3NIv-7" target="TtJlE7QL4vssy0-k3NIv-18">
          <mxGeometry relative="1" as="geometry" />
        </mxCell>
        <mxCell id="TtJlE7QL4vssy0-k3NIv-20" value="uses" style="edgeLabel;html=1;align=center;verticalAlign=middle;resizable=0;points=[];fontSize=16;" vertex="1" connectable="0" parent="TtJlE7QL4vssy0-k3NIv-19">
          <mxGeometry x="-0.1286" y="2" relative="1" as="geometry">
            <mxPoint y="1" as="offset" />
          </mxGeometry>
        </mxCell>
        <mxCell id="TtJlE7QL4vssy0-k3NIv-7" value="Developer&#39;s VApp repo" style="rounded=0;whiteSpace=wrap;html=1;fontSize=16;" vertex="1" parent="1">
          <mxGeometry x="-40" y="40" width="120" height="60" as="geometry" />
        </mxCell>
        <mxCell id="TtJlE7QL4vssy0-k3NIv-13" value="Velocitas Package" style="rounded=0;whiteSpace=wrap;html=1;fontSize=16;" vertex="1" parent="1">
          <mxGeometry x="120" y="-170" width="120" height="60" as="geometry" />
        </mxCell>
        <mxCell id="TtJlE7QL4vssy0-k3NIv-14" value="Velocitas Package" style="rounded=0;whiteSpace=wrap;html=1;fontSize=16;" vertex="1" parent="1">
          <mxGeometry x="130" y="-160" width="120" height="60" as="geometry" />
        </mxCell>
        <mxCell id="TtJlE7QL4vssy0-k3NIv-15" value="Velocitas Package repo" style="rounded=0;whiteSpace=wrap;html=1;fontSize=16;" vertex="1" parent="1">
          <mxGeometry x="140" y="-150" width="120" height="60" as="geometry" />
        </mxCell>
        <mxCell id="TtJlE7QL4vssy0-k3NIv-18" value="Vehicle Signal Specification" style="rounded=0;whiteSpace=wrap;html=1;fontSize=16;" vertex="1" parent="1">
          <mxGeometry x="-40" y="170" width="120" height="60" as="geometry" />
        </mxCell>
        <mxCell id="TtJlE7QL4vssy0-k3NIv-25" style="edgeStyle=none;curved=1;rounded=0;orthogonalLoop=1;jettySize=auto;html=1;entryX=0;entryY=0.5;entryDx=0;entryDy=0;fontSize=12;startSize=8;endSize=8;" edge="1" parent="1" source="TtJlE7QL4vssy0-k3NIv-21" target="TtJlE7QL4vssy0-k3NIv-24">
          <mxGeometry relative="1" as="geometry" />
        </mxCell>
        <mxCell id="TtJlE7QL4vssy0-k3NIv-26" value="invokes&lt;br&gt;&amp;nbsp;`velocitas create`" style="edgeLabel;html=1;align=center;verticalAlign=middle;resizable=0;points=[];fontSize=16;labelBackgroundColor=#E6E6E6;" vertex="1" connectable="0" parent="TtJlE7QL4vssy0-k3NIv-25">
          <mxGeometry x="-0.1043" relative="1" as="geometry">
            <mxPoint as="offset" />
          </mxGeometry>
        </mxCell>
        <mxCell id="TtJlE7QL4vssy0-k3NIv-21" value="Developer" style="shape=umlActor;verticalLabelPosition=bottom;verticalAlign=top;html=1;outlineConnect=0;fontSize=16;" vertex="1" parent="1">
          <mxGeometry x="-320" y="450" width="30" height="60" as="geometry" />
        </mxCell>
        <mxCell id="TtJlE7QL4vssy0-k3NIv-28" style="edgeStyle=none;curved=1;rounded=0;orthogonalLoop=1;jettySize=auto;html=1;fontSize=12;startSize=8;endSize=8;entryX=0;entryY=0.519;entryDx=0;entryDy=0;entryPerimeter=0;dashed=1;" edge="1" parent="1" source="TtJlE7QL4vssy0-k3NIv-24" target="TtJlE7QL4vssy0-k3NIv-35">
          <mxGeometry relative="1" as="geometry" />
        </mxCell>
        <mxCell id="TtJlE7QL4vssy0-k3NIv-39" value="Select and pick &lt;br&gt;required APIs and services" style="edgeLabel;html=1;align=center;verticalAlign=middle;resizable=0;points=[];fontSize=16;rotation=-90;labelBackgroundColor=#E6E6E6;" vertex="1" connectable="0" parent="TtJlE7QL4vssy0-k3NIv-28">
          <mxGeometry x="-0.1307" y="1" relative="1" as="geometry">
            <mxPoint x="5" y="-4" as="offset" />
          </mxGeometry>
        </mxCell>
        <mxCell id="TtJlE7QL4vssy0-k3NIv-37" style="edgeStyle=none;curved=1;rounded=0;orthogonalLoop=1;jettySize=auto;html=1;entryX=0.5;entryY=0;entryDx=0;entryDy=0;fontSize=12;startSize=8;endSize=8;" edge="1" parent="1" source="TtJlE7QL4vssy0-k3NIv-24" target="TtJlE7QL4vssy0-k3NIv-36">
          <mxGeometry relative="1" as="geometry" />
        </mxCell>
        <mxCell id="TtJlE7QL4vssy0-k3NIv-38" value="creates" style="edgeLabel;html=1;align=center;verticalAlign=middle;resizable=0;points=[];fontSize=16;" vertex="1" connectable="0" parent="TtJlE7QL4vssy0-k3NIv-37">
          <mxGeometry x="0.1778" relative="1" as="geometry">
            <mxPoint as="offset" />
          </mxGeometry>
        </mxCell>
        <mxCell id="TtJlE7QL4vssy0-k3NIv-24" value="Velocitas CLI&amp;nbsp;" style="rounded=0;whiteSpace=wrap;html=1;fontSize=16;" vertex="1" parent="1">
          <mxGeometry x="-60" y="450" width="120" height="60" as="geometry" />
        </mxCell>
        <mxCell id="TtJlE7QL4vssy0-k3NIv-51" style="edgeStyle=none;curved=1;rounded=0;orthogonalLoop=1;jettySize=auto;html=1;entryX=0;entryY=0.5;entryDx=0;entryDy=0;fontSize=12;startSize=8;endSize=8;" edge="1" parent="1" source="TtJlE7QL4vssy0-k3NIv-27" target="TtJlE7QL4vssy0-k3NIv-49">
          <mxGeometry relative="1" as="geometry" />
        </mxCell>
        <mxCell id="TtJlE7QL4vssy0-k3NIv-52" value="uses" style="edgeLabel;html=1;align=center;verticalAlign=middle;resizable=0;points=[];fontSize=16;" vertex="1" connectable="0" parent="TtJlE7QL4vssy0-k3NIv-51">
          <mxGeometry x="-0.1622" y="2" relative="1" as="geometry">
            <mxPoint y="1" as="offset" />
          </mxGeometry>
        </mxCell>
        <mxCell id="TtJlE7QL4vssy0-k3NIv-27" value="Velocitas &lt;br&gt;VSS-Model Support" style="rounded=0;whiteSpace=wrap;html=1;fontSize=16;" vertex="1" parent="1">
          <mxGeometry x="160" y="370" width="120" height="60" as="geometry" />
        </mxCell>
        <mxCell id="TtJlE7QL4vssy0-k3NIv-29" value="Velocitas&lt;br&gt;gRPC Service Support" style="rounded=0;whiteSpace=wrap;html=1;fontSize=16;" vertex="1" parent="1">
          <mxGeometry x="160" y="450" width="120" height="60" as="geometry" />
        </mxCell>
        <mxCell id="TtJlE7QL4vssy0-k3NIv-30" value="&lt;font style=&quot;font-size: 16px;&quot;&gt;Velocitas&lt;br style=&quot;font-size: 16px;&quot;&gt;VSC Support&lt;/font&gt;" style="rounded=0;whiteSpace=wrap;html=1;fontSize=16;" vertex="1" parent="1">
          <mxGeometry x="160" y="530" width="120" height="60" as="geometry" />
        </mxCell>
        <mxCell id="TtJlE7QL4vssy0-k3NIv-40" style="edgeStyle=none;curved=1;rounded=0;orthogonalLoop=1;jettySize=auto;html=1;entryX=0.5;entryY=1;entryDx=0;entryDy=0;fontSize=12;startSize=8;endSize=8;dashed=1;" edge="1" parent="1" source="TtJlE7QL4vssy0-k3NIv-36" target="TtJlE7QL4vssy0-k3NIv-35">
          <mxGeometry relative="1" as="geometry">
            <Array as="points">
              <mxPoint x="170" y="690" />
            </Array>
          </mxGeometry>
        </mxCell>
        <mxCell id="TtJlE7QL4vssy0-k3NIv-41" value="references developer defined&lt;br&gt;set of of" style="edgeLabel;html=1;align=center;verticalAlign=middle;resizable=0;points=[];fontSize=16;labelBackgroundColor=#E6E6E6;" vertex="1" connectable="0" parent="TtJlE7QL4vssy0-k3NIv-40">
          <mxGeometry x="-0.076" y="16" relative="1" as="geometry">
            <mxPoint x="49" y="-7" as="offset" />
          </mxGeometry>
        </mxCell>
        <mxCell id="TtJlE7QL4vssy0-k3NIv-43" value="" style="edgeStyle=none;curved=1;rounded=0;orthogonalLoop=1;jettySize=auto;html=1;fontSize=12;startSize=8;endSize=8;entryX=0.5;entryY=0;entryDx=0;entryDy=0;" edge="1" parent="1" source="TtJlE7QL4vssy0-k3NIv-36" target="TtJlE7QL4vssy0-k3NIv-45">
          <mxGeometry x="0.0074" relative="1" as="geometry">
            <mxPoint y="840" as="targetPoint" />
            <mxPoint as="offset" />
          </mxGeometry>
        </mxCell>
        <mxCell id="TtJlE7QL4vssy0-k3NIv-44" value="produces" style="edgeLabel;html=1;align=center;verticalAlign=middle;resizable=0;points=[];fontSize=16;" vertex="1" connectable="0" parent="TtJlE7QL4vssy0-k3NIv-43">
          <mxGeometry x="0.2444" y="-2" relative="1" as="geometry">
            <mxPoint x="2" y="-15" as="offset" />
          </mxGeometry>
        </mxCell>
        <mxCell id="TtJlE7QL4vssy0-k3NIv-36" value="Developer&#39;s VApp repo" style="rounded=0;whiteSpace=wrap;html=1;fontSize=16;" vertex="1" parent="1">
          <mxGeometry x="-60" y="690" width="120" height="60" as="geometry" />
        </mxCell>
        <mxCell id="TtJlE7QL4vssy0-k3NIv-45" value="VApp" style="rounded=0;whiteSpace=wrap;html=1;fontSize=16;" vertex="1" parent="1">
          <mxGeometry x="-60" y="870" width="120" height="60" as="geometry" />
        </mxCell>
        <mxCell id="TtJlE7QL4vssy0-k3NIv-46" value="Any git server" style="rounded=0;whiteSpace=wrap;html=1;fontSize=16;dashed=1;dashPattern=8 8;verticalAlign=top;" vertex="1" parent="1">
          <mxGeometry x="310" y="500" width="160" height="110" as="geometry" />
        </mxCell>
        <mxCell id="TtJlE7QL4vssy0-k3NIv-47" value="3rd party package" style="rounded=0;whiteSpace=wrap;html=1;fontSize=16;" vertex="1" parent="1">
          <mxGeometry x="330" y="530" width="120" height="60" as="geometry" />
        </mxCell>
        <mxCell id="TtJlE7QL4vssy0-k3NIv-49" value="Vehicle Signal Specification" style="rounded=0;whiteSpace=wrap;html=1;fontSize=16;" vertex="1" parent="1">
          <mxGeometry x="330" y="260" width="120" height="60" as="geometry" />
        </mxCell>
      </root>
    </mxGraphModel>
  </diagram>
  <diagram id="UB0tSF0JyT_4I1N07AXq" name="Page-3">
    <mxGraphModel dx="1746" dy="1176" grid="1" gridSize="10" guides="1" tooltips="1" connect="1" arrows="1" fold="1" page="0" pageScale="1" pageWidth="1169" pageHeight="827" math="0" shadow="0">
      <root>
        <mxCell id="0" />
        <mxCell id="1" parent="0" />
        <mxCell id="5CRcyxPDjsKuzQfwevzZ-3" value="existing" style="rounded=0;whiteSpace=wrap;html=1;fontSize=16;verticalAlign=bottom;" vertex="1" parent="1">
          <mxGeometry x="-230" y="-40" width="180" height="210" as="geometry" />
        </mxCell>
        <mxCell id="5CRcyxPDjsKuzQfwevzZ-1" value="velocitas-pkg-grpc" style="rounded=0;whiteSpace=wrap;html=1;fontSize=16;shadow=1;" vertex="1" parent="1">
          <mxGeometry x="-200" y="-10" width="120" height="60" as="geometry" />
        </mxCell>
        <mxCell id="5CRcyxPDjsKuzQfwevzZ-2" value="velocitas-pkg-vehiclemodel" style="rounded=0;whiteSpace=wrap;html=1;fontSize=16;shadow=1;" vertex="1" parent="1">
          <mxGeometry x="-200" y="70" width="120" height="60" as="geometry" />
        </mxCell>
        <mxCell id="5CRcyxPDjsKuzQfwevzZ-4" value="missing pieces" style="rounded=0;whiteSpace=wrap;html=1;fontSize=16;verticalAlign=bottom;fillStyle=cross-hatch;fillColor=#BFBFBF;" vertex="1" parent="1">
          <mxGeometry x="20" y="-40" width="180" height="210" as="geometry" />
        </mxCell>
        <mxCell id="5CRcyxPDjsKuzQfwevzZ-5" value="velocitas-pkg-ifex/vsc" style="rounded=0;whiteSpace=wrap;html=1;fontSize=16;shadow=1;" vertex="1" parent="1">
          <mxGeometry x="50" y="-10" width="120" height="60" as="geometry" />
        </mxCell>
        <mxCell id="5CRcyxPDjsKuzQfwevzZ-6" value="velocitas-pkg-aracom" style="rounded=0;whiteSpace=wrap;html=1;fontSize=16;shadow=1;" vertex="1" parent="1">
          <mxGeometry x="50" y="70" width="120" height="60" as="geometry" />
        </mxCell>
      </root>
    </mxGraphModel>
  </diagram>
</mxfile>
